<?xml version="1.0" encoding="UTF-8"?>
<svg id="Layer_1" xmlns="http://www.w3.org/2000/svg" viewBox="0 0 1000 400">
  <defs>
    <style>
      .cls-1 {
        fill: #e21836;
      }

      .cls-2 {
        fill: #fff;
      }
    </style>
  </defs>
  <g>
    <path class="cls-2" d="M153.97,107.21c-70.09,0-118.85,47.81-139.47,72.66-1.96,2.38-3.67,4.54-5.12,6.44-3.88,5.06-5.88,8.2-5.88,8.2,0,0,55.88,91.43,150.47,91.43s150.47-91.43,150.47-91.43c0,0-55.77-87.3-150.47-87.3ZM155.06,259.68c-35.87,0-65.02-29.03-65.02-64.71s29.15-64.71,65.02-64.71,65,29.03,65,64.71-29.17,64.71-65,64.71Z"/>
    <path class="cls-1" d="M155.05,164.93c-16.64,0-30.17,13.48-30.17,30.04s13.54,30.02,30.17,30.02,30.16-13.47,30.16-30.02-13.54-30.04-30.16-30.04Z"/>
  </g>
  <g>
    <path class="cls-2" d="M414.18,139.25v17.43h-21.81v77.02h21.81v17.36h-64.66v-17.36h21.27v-77.02h-21.27v-17.43h64.66Z"/>
    <path class="cls-2" d="M506.84,231.25c-2.07,4.5-4.85,8.34-8.33,11.52-3.48,3.17-7.63,5.62-12.44,7.33-4.81,1.71-10.14,2.57-15.97,2.57-4.61,0-8.87-.6-12.79-1.8-3.92-1.2-7.44-2.93-10.56-5.18-2.87-2.1-5.41-4.63-7.64-7.6-2.23-2.97-4.11-6.25-5.64-9.83-1.49-3.58-2.62-7.53-3.42-11.83-.79-4.3-1.19-8.86-1.19-13.67v-15.05c0-4.5.36-8.79,1.08-12.86.72-4.07,1.79-7.84,3.23-11.33,1.64-4.25,3.79-8.04,6.45-11.37,2.66-3.33,5.68-6.14,9.06-8.45,3.02-1.94,6.33-3.44,9.94-4.49,3.61-1.05,7.49-1.57,11.63-1.57,6.14,0,11.61.87,16.4,2.61,4.79,1.74,8.87,4.22,12.25,7.45,3.38,3.22,6.04,7.17,7.99,11.83,1.94,4.66,3.17,9.91,3.69,15.74h-21.5c-.21-3.33-.71-6.25-1.5-8.75-.79-2.51-1.93-4.61-3.42-6.3-1.54-1.64-3.44-2.88-5.72-3.72-2.28-.84-5-1.27-8.18-1.27-1.69,0-3.26.18-4.72.54-1.46.36-2.8.9-4.03,1.61-2.1,1.23-3.88,2.98-5.34,5.26-1.46,2.28-2.62,4.93-3.49,7.95-.67,2.36-1.15,4.95-1.46,7.79-.31,2.84-.46,5.9-.46,9.18v15.21c0,4.45.24,8.44.73,11.94.49,3.51,1.24,6.57,2.27,9.18.72,1.79,1.57,3.38,2.57,4.76s2.14,2.53,3.42,3.46c1.38,1.02,2.93,1.78,4.65,2.26,1.71.49,3.62.73,5.72.73,2.82,0,5.35-.36,7.6-1.08s4.17-1.84,5.76-3.38c1.59-1.54,2.84-3.51,3.76-5.91.92-2.41,1.48-5.3,1.69-8.68h21.58c-.36,5.63-1.57,10.7-3.65,15.21Z"/>
    <path class="cls-2" d="M550.11,202.06v31.56h53.68v17.43h-75.33v-111.81h75.1v17.58h-53.45v28.18h45.92v17.05h-45.92Z"/>
    <path class="cls-1" d="M675.58,156.83v94.23h-21.66v-94.23h-34.02v-17.58h90.16v17.58h-34.48Z"/>
    <path class="cls-1" d="M791.7,139.25v17.43h-21.81v77.02h21.81v17.36h-64.66v-17.36h21.27v-77.02h-21.27v-17.43h64.66Z"/>
    <path class="cls-1" d="M853.75,181.25l12.06-42.01h26.8v111.81h-19.81v-33.1l.92-52.3-14.67,48.53h-10.67l-13.13-46.46.92,50.22v33.1h-19.81v-111.81h26.8l10.6,42.01Z"/>
    <path class="cls-1" d="M937.06,202.06v31.56h53.68v17.43h-75.33v-111.81h75.1v17.58h-53.45v28.18h45.92v17.05h-45.92Z"/>
  </g>
</svg>