<?xml version="1.0" encoding="UTF-8"?><svg id="Layer_1" xmlns="http://www.w3.org/2000/svg" xmlns:xlink="http://www.w3.org/1999/xlink" viewBox="0 0 80 80"><defs><style>.cls-1{fill:none;}.cls-2{clip-path:url(#clippath);}.cls-3{fill:#fff;}.cls-4{fill:#e21836;}.cls-5{fill:#231f20;}</style><clipPath id="clippath"><circle class="cls-1" cx="40" cy="40.5" r="39.86"/></clipPath></defs><g class="cls-2"><polygon class="cls-3" points="70.94 40.16 40.41 40.16 40.41 13.46 39.66 13.46 39.66 40.16 9.13 40.16 9.13 40.91 39.66 40.91 39.66 67.61 40.41 67.61 40.41 40.91 70.94 40.91 70.94 40.16"/><path class="cls-3" d="m53.49,21.35h6.52l.07.04.07.04-.32,4.42-.32,4.42,3.4-4.46,3.4-4.46h4.47s.08.02.11.05c.02.02.04.05.04.09-3.45,4.63-6.05,8.11-7.81,10.44-1.76,2.34-2.67,3.53-2.75,3.58h-4.89l-.07-.04-.07-.04.29-3.96.29-3.96c-2.03,2.67-3.57,4.67-4.59,6-1.03,1.33-1.55,2-1.57,2h-4.68v-.07l4.42-5.91,4.42-5.91c.05-.09.08-.18.11-.27.02-.09.04-.19.04-.29v-.21c0-.15-.06-.35-.18-.58-.12-.24-.29-.51-.53-.83l.07-.04.07-.04Z"/><path class="cls-3" d="m53.49,45.75h6.87v.14l-3.89,5.17-3.89,5.17v.07h7.65s.08.02.11.05.04.06.04.1c-.88,1.15-1.54,2.02-1.99,2.6-.45.58-.68.87-.7.87h-12.61v-.07l4.42-5.91,4.42-5.91c.05-.09.08-.18.11-.27.02-.09.04-.19.04-.29v-.21c0-.15-.06-.35-.18-.58-.12-.24-.29-.51-.53-.83l.07-.04.07-.04Z"/><path class="cls-3" d="m17.75,45.75h6.87v.14l-1.91,2.55-1.91,2.55v.07h5.74c1.32-1.74,2.32-3.06,3-3.94.68-.89,1.05-1.34,1.1-1.37h4.39s.08.02.11.05.04.05.04.09c-3.45,4.63-6.05,8.11-7.81,10.44-1.76,2.34-2.67,3.53-2.75,3.58h-4.52v-.07l1.84-2.52,1.84-2.52h-5.81c-.09.07-.41.47-.98,1.22-.57.74-1.37,1.83-2.42,3.25-.17.21-.31.37-.4.48s-.15.16-.16.16h-4.68v-.07l4.42-5.91,4.42-5.91c.05-.09.08-.18.11-.27.02-.09.04-.19.04-.29v-.21c0-.15-.06-.35-.18-.58-.12-.24-.29-.51-.53-.83l.07-.04.07-.04Z"/><path class="cls-3" d="m22.22,20.27c-6,0-10.18,4.1-11.95,6.23-.17.2-.32.39-.44.55-.33.43-.5.7-.5.7,0,0,4.79,7.83,12.89,7.83s12.89-7.83,12.89-7.83c0,0-4.78-7.48-12.89-7.48Zm.09,13.06c-3.07,0-5.57-2.49-5.57-5.54s2.5-5.54,5.57-5.54,5.57,2.49,5.57,5.54-2.5,5.54-5.57,5.54Z"/></g><path class="cls-5" d="m22.31,22.25c-3.07,0-5.57,2.49-5.57,5.54s2.5,5.54,5.57,5.54,5.57-2.49,5.57-5.54-2.5-5.54-5.57-5.54Zm0,8.12c-1.43,0-2.58-1.15-2.58-2.57s1.16-2.57,2.58-2.57,2.58,1.15,2.58,2.57-1.16,2.57-2.58,2.57Z"/><path class="cls-4" d="m22.31,25.22c-1.43,0-2.58,1.15-2.58,2.57s1.16,2.57,2.58,2.57,2.58-1.15,2.58-2.57-1.16-2.57-2.58-2.57Z"/></svg>